<svg xmlns="http://www.w3.org/2000/svg" xmlns:xlink="http://www.w3.org/1999/xlink" x="0px" y="0px" width="638px" height="191px" viewBox="0 0 638 191" xml:space="preserve"><g id="Ebene_1"></g><g id="Ebene_2">	<path fill="#F72D17" d="M-0.001,63.799C-0.001,28.563,28.563,0,63.8,0c18.45,0,35.071,7.832,46.719,20.352H67.931  c-16.728,0-34.851,8.597-34.851,27.299c0,13.824,9.758,19.169,19.866,22.538c11.5,3.833,19.979,4.646,19.979,10.686  c0,5.463-6.156,8.016-11.15,8.016H5.122C1.825,81.19-0.001,72.708-0.001,63.799L-0.001,63.799z"></path>	<path fill="#C4C4C4" d="M122.475,38.706c3.299,7.702,5.125,16.184,5.125,25.093c0,35.238-28.563,63.8-63.799,63.8  c-18.452,0-35.074-7.834-46.723-20.355h42.606c18.006,0,37.406-9.408,37.406-29.39c0-9.874-4.88-17.775-19.284-22.886  c-8.132-2.903-20.562-3.252-20.562-9.525c0-5.459,5.576-6.737,9.873-6.737H122.475L122.475,38.706z"></path>	<path fill="#FFFFFF" d="M122.475,38.706H67.117c-4.297,0-9.873,1.278-9.873,6.737c0,6.273,12.429,6.623,20.562,9.525  c14.404,5.11,19.284,13.012,19.284,22.886c0,19.981-19.4,29.39-37.406,29.39H17.077c-4.973-5.346-9.04-11.544-11.956-18.355h56.653  c4.995,0,11.15-2.553,11.15-8.016c0-6.04-8.479-6.852-19.979-10.686C42.838,66.82,33.08,61.474,33.08,47.65  c0-18.702,18.123-27.299,34.851-27.299h42.588C115.493,25.696,119.559,31.896,122.475,38.706L122.475,38.706z"></path>	<path fill="#F72D17" d="M230.945,47.764c0.455-20.015-15.125-26.498-32.413-26.498c-16.375,0-34.117,8.417-34.117,26.726  c0,13.533,9.553,18.766,19.448,22.063c11.258,3.753,19.561,4.55,19.561,10.463c0,5.346-6.027,7.846-10.917,7.846  c-4.093,0-7.05-0.227-9.213-2.045c-2.045-2.049-3.07-4.777-3.07-9.212H156c-1.023,20.698,15.807,29.226,34.458,29.226  c17.627,0,36.62-9.209,36.62-28.771c0-9.667-4.776-17.402-18.877-22.405c-7.961-2.842-20.129-3.184-20.129-9.325  c0-5.345,5.459-6.596,9.665-6.596c2.845,0,5.46,0.454,7.279,1.818c1.819,1.366,2.958,3.414,2.843,6.71H230.945L230.945,47.764z"></path>	<path fill="#F72D17" d="M294.057,67.779c0.341-16.489-11.828-23.881-28.204-23.881c-22.518,0-35.597,14.898-35.597,35.028  c0,11.031,5.004,26.953,30.024,26.953c17.058,0,27.862-8.189,31.728-25.019h-21.606c-1.251,3.297-3.753,8.643-9.895,8.643  c-6.483,0-7.735-5.232-7.735-10.803c0-5.573,2.618-18.425,12.397-18.425c2.615,0,4.548,0.455,5.687,1.706  c1.251,1.136,1.706,2.958,1.591,5.799H294.057L294.057,67.779z"></path>	<path fill="#F72D17" d="M291.068,104.4h22.517l6.598-31.274c1.364-6.141,3.753-11.259,10.918-11.259  c3.64,0,6.369,1.933,6.369,5.685c0,2.39-1.138,6.37-1.821,9.781l-5.801,27.067h22.52l7.164-33.321  c0.908-4.322,1.593-8.645,1.593-11.26c0-11.6-8.87-15.921-19.22-15.921c-6.256,0-13.42,3.185-17.515,8.984h-0.228l6.141-29.683  h-22.517L291.068,104.4L291.068,104.4z"></path>	<path fill="#F72D17" d="M361.321,104.4h22.517l6.599-31.274c1.363-6.141,3.75-11.259,10.916-11.259  c3.639,0,6.369,1.933,6.369,5.685c0,2.39-1.137,6.37-1.822,9.781l-5.799,27.067h22.518l7.166-33.321  c0.908-4.322,1.594-8.645,1.594-11.26c0-11.6-8.871-15.921-19.223-15.921c-7.164,0-13.986,3.639-18.309,8.984h-0.227l1.707-7.505  h-21.725L361.321,104.4L361.321,104.4z"></path>	<path fill-rule="evenodd" clip-rule="evenodd" fill="#F72D17" d="M454.774,87.456c0-4.322,3.523-6.254,7.279-6.596  c4.092-0.342,8.301-0.797,11.939-2.617c-1.365,8.757-4.436,14.33-12.055,14.33C458.298,92.573,454.774,91.549,454.774,87.456  L454.774,87.456z M461.255,63.232c1.252-4.436,4.436-6.027,8.986-6.027c3.412,0,7.051,1.021,7.051,5.118  c0,7.278-10.123,6.369-16.492,6.822c-16.943,1.252-28.543,5.461-28.543,21.04c0,11.257,8.982,15.695,19.105,15.695  c6.596,0,14.215-2.387,18.195-7.166h0.227c-0.111,1.934,0.23,3.867,0.797,5.688h22.064c-0.568-1.363-0.912-3.07-0.912-5.232  c0-3.867,7.168-30.365,7.168-39.576c0-14.33-17.969-15.694-28.66-15.694c-14.441,0-26.611,3.639-30.137,19.334H461.255  L461.255,63.232z"></path>	<path fill-rule="evenodd" clip-rule="evenodd" fill="#F72D17" d="M499.79,104.4h21.381l1.707-7.619h0.227  c3.184,7.734,10.689,9.098,17.516,9.098c24.791,0,29.566-27.749,29.566-38.211c0-19.448-12.283-23.77-20.242-23.77  c-6.256,0-12.625,2.502-16.377,7.278h-0.229l5.801-27.977h-22.516L499.79,104.4L499.79,104.4z M539.253,60.274  c5.686-0.228,8.416,3.753,8.416,9.667c0,8.643-3.867,19.561-12.963,19.561c-5.006,0-7.621-4.549-7.621-9.098  C527.085,72.558,530.042,60.274,539.253,60.274L539.253,60.274z"></path>	<polygon fill="#F72D17" points="570.61,104.4 593.128,104.4 609.96,23.199 587.442,23.199 570.61,104.4  "></polygon>	<path fill-rule="evenodd" clip-rule="evenodd" fill="#F72D17" d="M618.173,30.87c0,5.886,4.699,9.707,9.914,9.707  c5.266,0,9.912-3.821,9.912-9.707c0-5.834-4.646-9.603-9.912-9.603C622.872,21.267,618.173,25.035,618.173,30.87L618.173,30.87z   M620.808,30.87c0-4.389,3.252-7.538,7.279-7.538c4.026,0,7.279,3.148,7.279,7.538c0,4.44-3.253,7.641-7.279,7.641  C624.06,38.511,620.808,35.31,620.808,30.87L620.808,30.87z M624.265,36.291h2.119v-4.646h1.342l2.633,4.646h2.273l-2.893-4.75  c1.6-0.103,2.84-0.878,2.84-2.891c0-2.323-1.551-3.201-4.234-3.201h-4.08V36.291L624.265,36.291z M626.384,27.152h1.807  c0.98,0,2.219,0.155,2.219,1.342c0,1.292-0.877,1.498-2.115,1.498h-1.91V27.152L626.384,27.152z"></path>	<g>		<path fill="#C4C4C4" d="M167.253,147.184h6.903l-1.639,7.703h4.002l-1,4.701h-4.001l-3.096,14.555   c-0.447,2.104-0.177,2.953,1.823,2.953c0.55,0,1.111-0.051,1.572-0.1l-1.021,4.801c-1.532,0.15-2.965,0.301-4.565,0.301   c-5.402,0-6.052-1.652-4.892-7.102l3.277-15.408h-3.501l1-4.701h3.501L167.253,147.184z"></path>		<path fill="#C4C4C4" d="M179.563,154.887h6.902l-5.723,26.91h-6.903L179.563,154.887z M181.521,145.682h6.903l-1.255,5.902h-6.903   L181.521,145.682z"></path>		<path fill="#C4C4C4" d="M191.767,154.887h6.603l-0.585,2.752h0.1c2.272-2.453,4.636-3.453,7.537-3.453   c3.15,0,5.122,1.551,5.287,4.303h0.1c1.657-2.852,4.466-4.303,7.718-4.303c4.552,0,6.096,2.854,4.99,8.055l-4.16,19.557h-6.902   l4-18.807c0.479-2.252-0.005-3.502-1.956-3.502c-2.201,0-3.921,1.5-4.58,4.602l-3.767,17.707h-6.902l4-18.807   c0.479-2.252-0.006-3.502-1.957-3.502c-2.2,0-3.92,1.5-4.58,4.602l-3.766,17.707h-6.903L191.767,154.887z"></path>		<path fill="#C4C4C4" d="M232.861,169.393l-0.457,2.15c-0.67,3.152-0.48,6.252,2.071,6.252c2.3,0,3.624-1.75,4.726-5.053h6.203   c-1.58,6.254-5.326,9.756-11.829,9.756c-10.003,0-8.765-7.703-7.339-14.406c1.532-7.203,4.357-13.906,13.662-13.906   c8.053,0,8.704,5.402,6.949,13.656l-0.33,1.551H232.861z M240.786,165.291c0.723-4.102,0.711-6.402-2.14-6.402   c-2.751,0-4.158,2.85-4.689,5.352l-0.224,1.051H240.786z"></path>		<path fill="#C4C4C4" d="M267.306,172.992l-0.192,0.9c-0.5,2.354,0.421,3.902,2.771,3.902c2.102,0,3.725-1.049,4.183-3.199   c0.372-1.752-0.608-2.553-1.852-3.053l-4.479-1.75c-3.514-1.35-4.965-3.703-4.156-7.502c0.947-4.453,4.524-8.105,11.627-8.105   c6.252,0,8.607,2.803,7.576,7.652l-0.234,1.104h-6.203c0.574-2.703,0.062-4.053-2.189-4.053c-1.75,0-3.464,1-3.868,2.9   c-0.277,1.301,0.189,2.402,2.331,3.152l3.854,1.398c4.043,1.451,5.176,3.652,4.314,7.703c-1.202,5.652-5.999,8.455-11.801,8.455   c-7.753,0-9.18-3.402-8.085-8.555l0.203-0.951H267.306z"></path>		<path fill="#C4C4C4" d="M286.816,163.141l0.138-0.65c1.319-6.201,6.018-8.305,11.22-8.305c8.204,0,9.03,3.402,7.999,8.256   l-3.011,14.154c-0.532,2.5-0.626,3.65-0.256,5.201h-6.602c-0.27-0.85-0.247-1.9-0.255-2.801h-0.1   c-2.196,2.801-4.296,3.502-7.598,3.502c-4.802,0-5.63-4.104-4.864-7.703c1.075-5.053,3.562-7.104,8.59-8.404l4.125-1.051   c2.168-0.549,3.039-1.35,3.421-3.15c0.436-2.051-0.198-3.301-2.5-3.301c-2.101,0-3.499,1.4-3.945,3.502l-0.16,0.75H286.816z    M298.314,168.344c-1.1,0.699-2.346,1.148-3.238,1.35c-2.929,0.6-4.316,1.949-4.827,4.35c-0.437,2.053-0.047,3.752,1.803,3.752   s4.507-1.199,5.134-4.152L298.314,168.344z"></path>		<path fill="#C4C4C4" d="M324.919,154.887h6.902l-12.477,26.91h-8.004l-1.229-26.91h7.203l-0.245,19.256h0.101L324.919,154.887z"></path>		<path fill="#C4C4C4" d="M334.32,154.887h6.902l-5.724,26.91h-6.902L334.32,154.887z M336.277,145.682h6.903l-1.256,5.902h-6.902   L336.277,145.682z"></path>		<path fill="#C4C4C4" d="M346.523,154.887h6.602l-0.669,3.152h0.1c2.014-2.652,4.771-3.854,7.672-3.854   c4.302,0,6.353,2.354,5.225,7.652l-4.245,19.959h-6.902l3.947-18.557c0.574-2.701-0.103-3.752-2.153-3.752   c-2.351,0-3.959,1.451-4.599,4.453l-3.798,17.855H340.8L346.523,154.887z"></path>		<path fill="#C4C4C4" d="M391.739,154.887l-5.437,25.559c-1.511,7.105-5.396,10.555-13.449,10.555c-5.852,0-8.6-2.6-7.621-7.203   h6.602c-0.191,0.9,0.061,1.602,0.614,2.051c0.555,0.451,1.292,0.752,2.142,0.752c2.802,0,4.248-2.102,4.834-4.852l0.755-3.553   h-0.1c-1.826,2-4.254,3.303-6.454,3.303c-5.503,0-7.456-3.752-5.36-13.607c1.341-6.303,3.865-13.705,11.369-13.705   c1.9,0,4.06,0.9,4.764,3.703h0.101l0.638-3.002H391.739z M376.854,176.195c2.9,0,4.421-3.152,5.39-7.703   c1.394-6.553,1.064-9.004-1.687-9.004c-3.052,0-4.123,2.451-5.666,9.705C374.104,172.893,373.952,176.195,376.854,176.195z"></path>		<path fill="#C4C4C4" d="M409.493,154.887h6.604l-0.607,2.852h0.1c2.033-2.502,4.158-3.553,6.859-3.553   c5.652,0,7.369,4.152,5.24,14.158c-2.127,10.002-5.609,14.154-11.262,14.154c-2.602,0-4.129-1.051-5.123-3.203h-0.1L408.8,190.6   h-6.902L409.493,154.887z M415.302,177.195c3.002,0,4.24-3.002,5.484-8.852c1.246-5.854,1.283-8.855-1.717-8.855   c-3.051,0-4.291,3.002-5.535,8.855C412.288,174.193,412.251,177.195,415.302,177.195z"></path>		<path fill="#C4C4C4" d="M434.808,154.887h6.602l-0.766,3.602h0.1c1.953-2.602,4.266-4.303,7.117-4.303   c0.4,0,0.84,0.051,1.229,0.102l-1.404,6.602c-0.689-0.051-1.428-0.1-2.129-0.1c-2.4,0-5.367,1.25-6.135,4.852l-3.436,16.156   h-6.902L434.808,154.887z"></path>		<path fill="#C4C4C4" d="M460.999,154.186c8.336-0.148,9.584,4.803,7.594,14.158c-1.959,9.201-5.713,14.154-13.615,14.154   c-8.334,0.15-9.584-4.803-7.594-14.154C449.343,159.139,453.097,154.186,460.999,154.186z M455.978,177.795   c2.801,0,4.287-2.75,5.713-9.451c1.424-6.707,1.109-9.455-1.691-9.455c-3.4,0-4.541,3.951-5.713,9.455   C453.116,173.844,452.577,177.795,455.978,177.795z"></path>		<path fill="#C4C4C4" d="M483.991,178.945h-0.1c-2.033,2.502-4.156,3.553-6.857,3.553c-5.652,0-7.371-4.152-5.242-14.154   c2.129-10.006,5.611-14.158,11.264-14.158c2.602,0,4.129,1.051,5.121,3.203h0.1l2.404-11.307h6.902l-7.596,35.715h-6.602   L483.991,178.945z M480.413,177.195c3.051,0,4.289-3.002,5.535-8.852c1.244-5.854,1.281-8.855-1.77-8.855   c-3,0-4.238,3.002-5.484,8.855C477.45,174.193,477.411,177.195,480.413,177.195z"></path>		<path fill="#C4C4C4" d="M509.448,178.645h-0.1c-2.014,2.652-4.77,3.854-7.672,3.854c-4.303,0-6.352-2.352-5.225-7.652   l4.244-19.959h6.904l-3.949,18.557c-0.574,2.701,0.104,3.752,2.154,3.752c2.352,0,3.959-1.449,4.6-4.453l3.797-17.855h6.902   l-5.725,26.91h-6.602L509.448,178.645z"></path>		<path fill="#C4C4C4" d="M537.011,164.59c0.555-2.602,0.65-5.402-1.951-5.402c-3.402,0-4.59,3.002-5.91,9.205   c-1.414,6.652-1.4,9.402,1.701,9.402c2.301,0,3.768-1.949,4.693-6.303h6.602c-1.5,7.053-5.291,11.006-12.594,11.006   c-6.902,0-9.592-3.354-7.295-14.154c2.352-11.055,7.564-14.158,13.916-14.158s8.791,4.053,7.439,10.404H537.011z"></path>		<path fill="#C4C4C4" d="M552.306,147.184h6.904l-1.639,7.703h4l-1,4.701h-4l-3.096,14.555c-0.447,2.104-0.178,2.953,1.822,2.953   c0.551,0,1.111-0.051,1.572-0.1l-1.021,4.801c-1.533,0.15-2.965,0.301-4.566,0.301c-5.402,0-6.051-1.652-4.891-7.102l3.275-15.408   h-3.5l1-4.701h3.502L552.306,147.184z"></path>		<path fill="#C4C4C4" d="M565.597,172.992l-0.191,0.9c-0.5,2.354,0.422,3.902,2.771,3.902c2.102,0,3.725-1.049,4.182-3.199   c0.373-1.752-0.607-2.553-1.852-3.053l-4.479-1.75c-3.514-1.35-4.965-3.703-4.156-7.502c0.947-4.453,4.523-8.105,11.627-8.105   c6.252,0,8.607,2.803,7.576,7.652l-0.234,1.104h-6.203c0.574-2.703,0.062-4.053-2.189-4.053c-1.75,0-3.463,1-3.867,2.9   c-0.277,1.301,0.189,2.402,2.33,3.152l3.854,1.398c4.043,1.451,5.176,3.652,4.314,7.703c-1.203,5.652-6,8.455-11.803,8.455   c-7.752,0-9.18-3.402-8.084-8.555l0.203-0.951H565.597z"></path>	</g></g></svg>